<svg xmlns="http://www.w3.org/2000/svg" xmlns:xlink="http://www.w3.org/1999/xlink" width="600" height="400" viewBox="0 0 2400 1600">
<defs>
  <clipPath id="clip100">
    <rect x="0" y="0" width="2400" height="1600"></rect>
  </clipPath>
</defs>
<path clip-path="url(#clip100)" d="M0 1600 L2400 1600 L2400 0 L0 0  Z" fill="#ffffff" fill-rule="evenodd" fill-opacity="1"></path>
<defs>
  <clipPath id="clip101">
    <rect x="480" y="0" width="1681" height="1600"></rect>
  </clipPath>
</defs>
<path clip-path="url(#clip100)" d="M110.881 1486.45 L2352.76 1486.45 L2352.76 47.2441 L110.881 47.2441  Z" fill="#ffffff" fill-rule="evenodd" fill-opacity="1"></path>
<defs>
  <clipPath id="clip102">
    <rect x="110" y="47" width="2243" height="1440"></rect>
  </clipPath>
</defs>
<polyline clip-path="url(#clip102)" style="stroke:#000000; stroke-linecap:round; stroke-linejoin:round; stroke-width:2; stroke-opacity:0.1; fill:none" points="167.257,1486.45 167.257,47.2441 "></polyline>
<polyline clip-path="url(#clip102)" style="stroke:#000000; stroke-linecap:round; stroke-linejoin:round; stroke-width:2; stroke-opacity:0.1; fill:none" points="874.607,1486.45 874.607,47.2441 "></polyline>
<polyline clip-path="url(#clip102)" style="stroke:#000000; stroke-linecap:round; stroke-linejoin:round; stroke-width:2; stroke-opacity:0.1; fill:none" points="1581.96,1486.45 1581.96,47.2441 "></polyline>
<polyline clip-path="url(#clip102)" style="stroke:#000000; stroke-linecap:round; stroke-linejoin:round; stroke-width:2; stroke-opacity:0.1; fill:none" points="2289.31,1486.45 2289.31,47.2441 "></polyline>
<polyline clip-path="url(#clip100)" style="stroke:#000000; stroke-linecap:round; stroke-linejoin:round; stroke-width:4; stroke-opacity:1; fill:none" points="110.881,1486.45 2352.76,1486.45 "></polyline>
<polyline clip-path="url(#clip100)" style="stroke:#000000; stroke-linecap:round; stroke-linejoin:round; stroke-width:4; stroke-opacity:1; fill:none" points="167.257,1486.45 167.257,1467.55 "></polyline>
<polyline clip-path="url(#clip100)" style="stroke:#000000; stroke-linecap:round; stroke-linejoin:round; stroke-width:4; stroke-opacity:1; fill:none" points="874.607,1486.45 874.607,1467.55 "></polyline>
<polyline clip-path="url(#clip100)" style="stroke:#000000; stroke-linecap:round; stroke-linejoin:round; stroke-width:4; stroke-opacity:1; fill:none" points="1581.96,1486.45 1581.96,1467.55 "></polyline>
<polyline clip-path="url(#clip100)" style="stroke:#000000; stroke-linecap:round; stroke-linejoin:round; stroke-width:4; stroke-opacity:1; fill:none" points="2289.31,1486.45 2289.31,1467.55 "></polyline>
<path clip-path="url(#clip100)" d="M167.257 1517.37 Q163.646 1517.37 161.817 1520.93 Q160.011 1524.47 160.011 1531.6 Q160.011 1538.71 161.817 1542.27 Q163.646 1545.82 167.257 1545.82 Q170.891 1545.82 172.696 1542.27 Q174.525 1538.71 174.525 1531.6 Q174.525 1524.47 172.696 1520.93 Q170.891 1517.37 167.257 1517.37 M167.257 1513.66 Q173.067 1513.66 176.122 1518.27 Q179.201 1522.85 179.201 1531.6 Q179.201 1540.33 176.122 1544.94 Q173.067 1549.52 167.257 1549.52 Q161.447 1549.52 158.368 1544.94 Q155.312 1540.33 155.312 1531.6 Q155.312 1522.85 158.368 1518.27 Q161.447 1513.66 167.257 1513.66 Z" fill="#000000" fill-rule="nonzero" fill-opacity="1"></path><path clip-path="url(#clip100)" d="M834.213 1544.91 L841.852 1544.91 L841.852 1518.55 L833.542 1520.21 L833.542 1515.95 L841.806 1514.29 L846.482 1514.29 L846.482 1544.91 L854.121 1544.91 L854.121 1548.85 L834.213 1548.85 L834.213 1544.91 Z" fill="#000000" fill-rule="nonzero" fill-opacity="1"></path><path clip-path="url(#clip100)" d="M873.565 1517.37 Q869.954 1517.37 868.125 1520.93 Q866.32 1524.47 866.32 1531.6 Q866.32 1538.71 868.125 1542.27 Q869.954 1545.82 873.565 1545.82 Q877.199 1545.82 879.005 1542.27 Q880.833 1538.71 880.833 1531.6 Q880.833 1524.47 879.005 1520.93 Q877.199 1517.37 873.565 1517.37 M873.565 1513.66 Q879.375 1513.66 882.431 1518.27 Q885.509 1522.85 885.509 1531.6 Q885.509 1540.33 882.431 1544.94 Q879.375 1549.52 873.565 1549.52 Q867.755 1549.52 864.676 1544.94 Q861.621 1540.33 861.621 1531.6 Q861.621 1522.85 864.676 1518.27 Q867.755 1513.66 873.565 1513.66 Z" fill="#000000" fill-rule="nonzero" fill-opacity="1"></path><path clip-path="url(#clip100)" d="M903.727 1517.37 Q900.116 1517.37 898.287 1520.93 Q896.482 1524.47 896.482 1531.6 Q896.482 1538.71 898.287 1542.27 Q900.116 1545.82 903.727 1545.82 Q907.361 1545.82 909.167 1542.27 Q910.995 1538.71 910.995 1531.6 Q910.995 1524.47 909.167 1520.93 Q907.361 1517.37 903.727 1517.37 M903.727 1513.66 Q909.537 1513.66 912.593 1518.27 Q915.671 1522.85 915.671 1531.6 Q915.671 1540.33 912.593 1544.94 Q909.537 1549.52 903.727 1549.52 Q897.917 1549.52 894.838 1544.94 Q891.782 1540.33 891.782 1531.6 Q891.782 1522.85 894.838 1518.27 Q897.917 1513.66 903.727 1513.66 Z" fill="#000000" fill-rule="nonzero" fill-opacity="1"></path><path clip-path="url(#clip100)" d="M1545.65 1544.91 L1561.97 1544.91 L1561.97 1548.85 L1540.02 1548.85 L1540.02 1544.91 Q1542.69 1542.16 1547.27 1537.53 Q1551.88 1532.88 1553.06 1531.53 Q1555.3 1529.01 1556.18 1527.27 Q1557.08 1525.51 1557.08 1523.82 Q1557.08 1521.07 1555.14 1519.33 Q1553.22 1517.6 1550.12 1517.6 Q1547.92 1517.6 1545.46 1518.36 Q1543.03 1519.13 1540.26 1520.68 L1540.26 1515.95 Q1543.08 1514.82 1545.53 1514.24 Q1547.99 1513.66 1550.02 1513.66 Q1555.39 1513.66 1558.59 1516.35 Q1561.78 1519.03 1561.78 1523.52 Q1561.78 1525.65 1560.97 1527.57 Q1560.19 1529.47 1558.08 1532.07 Q1557.5 1532.74 1554.4 1535.95 Q1551.3 1539.15 1545.65 1544.91 Z" fill="#000000" fill-rule="nonzero" fill-opacity="1"></path><path clip-path="url(#clip100)" d="M1581.78 1517.37 Q1578.17 1517.37 1576.34 1520.93 Q1574.54 1524.47 1574.54 1531.6 Q1574.54 1538.71 1576.34 1542.27 Q1578.17 1545.82 1581.78 1545.82 Q1585.42 1545.82 1587.22 1542.27 Q1589.05 1538.71 1589.05 1531.6 Q1589.05 1524.47 1587.22 1520.93 Q1585.42 1517.37 1581.78 1517.37 M1581.78 1513.66 Q1587.59 1513.66 1590.65 1518.27 Q1593.73 1522.85 1593.73 1531.6 Q1593.73 1540.33 1590.65 1544.94 Q1587.59 1549.52 1581.78 1549.52 Q1575.97 1549.52 1572.89 1544.94 Q1569.84 1540.33 1569.84 1531.6 Q1569.84 1522.85 1572.89 1518.27 Q1575.97 1513.66 1581.78 1513.66 Z" fill="#000000" fill-rule="nonzero" fill-opacity="1"></path><path clip-path="url(#clip100)" d="M1611.94 1517.37 Q1608.33 1517.37 1606.51 1520.93 Q1604.7 1524.47 1604.7 1531.6 Q1604.7 1538.71 1606.51 1542.27 Q1608.33 1545.82 1611.94 1545.82 Q1615.58 1545.82 1617.38 1542.27 Q1619.21 1538.71 1619.21 1531.6 Q1619.21 1524.47 1617.38 1520.93 Q1615.58 1517.37 1611.94 1517.37 M1611.94 1513.66 Q1617.76 1513.66 1620.81 1518.27 Q1623.89 1522.85 1623.89 1531.6 Q1623.89 1540.33 1620.81 1544.94 Q1617.76 1549.52 1611.94 1549.52 Q1606.13 1549.52 1603.06 1544.94 Q1600 1540.33 1600 1531.6 Q1600 1522.85 1603.06 1518.27 Q1606.13 1513.66 1611.94 1513.66 Z" fill="#000000" fill-rule="nonzero" fill-opacity="1"></path><path clip-path="url(#clip100)" d="M2263.07 1530.21 Q2266.42 1530.93 2268.3 1533.2 Q2270.2 1535.47 2270.2 1538.8 Q2270.2 1543.92 2266.68 1546.72 Q2263.16 1549.52 2256.68 1549.52 Q2254.5 1549.52 2252.19 1549.08 Q2249.9 1548.66 2247.44 1547.81 L2247.44 1543.29 Q2249.39 1544.43 2251.7 1545.01 Q2254.02 1545.58 2256.54 1545.58 Q2260.94 1545.58 2263.23 1543.85 Q2265.55 1542.11 2265.55 1538.8 Q2265.55 1535.75 2263.39 1534.03 Q2261.26 1532.3 2257.44 1532.3 L2253.42 1532.3 L2253.42 1528.45 L2257.63 1528.45 Q2261.08 1528.45 2262.91 1527.09 Q2264.73 1525.7 2264.73 1523.11 Q2264.73 1520.45 2262.84 1519.03 Q2260.96 1517.6 2257.44 1517.6 Q2255.52 1517.6 2253.32 1518.01 Q2251.12 1518.43 2248.49 1519.31 L2248.49 1515.14 Q2251.15 1514.4 2253.46 1514.03 Q2255.8 1513.66 2257.86 1513.66 Q2263.18 1513.66 2266.29 1516.09 Q2269.39 1518.5 2269.39 1522.62 Q2269.39 1525.49 2267.74 1527.48 Q2266.1 1529.45 2263.07 1530.21 Z" fill="#000000" fill-rule="nonzero" fill-opacity="1"></path><path clip-path="url(#clip100)" d="M2289.06 1517.37 Q2285.45 1517.37 2283.62 1520.93 Q2281.82 1524.47 2281.82 1531.6 Q2281.82 1538.71 2283.62 1542.27 Q2285.45 1545.82 2289.06 1545.82 Q2292.7 1545.82 2294.5 1542.27 Q2296.33 1538.71 2296.33 1531.6 Q2296.33 1524.47 2294.5 1520.93 Q2292.7 1517.37 2289.06 1517.37 M2289.06 1513.66 Q2294.87 1513.66 2297.93 1518.27 Q2301.01 1522.85 2301.01 1531.6 Q2301.01 1540.33 2297.93 1544.94 Q2294.87 1549.52 2289.06 1549.52 Q2283.25 1549.52 2280.17 1544.94 Q2277.12 1540.33 2277.12 1531.6 Q2277.12 1522.85 2280.17 1518.27 Q2283.25 1513.66 2289.06 1513.66 Z" fill="#000000" fill-rule="nonzero" fill-opacity="1"></path><path clip-path="url(#clip100)" d="M2319.23 1517.37 Q2315.61 1517.37 2313.79 1520.93 Q2311.98 1524.47 2311.98 1531.6 Q2311.98 1538.71 2313.79 1542.27 Q2315.61 1545.82 2319.23 1545.82 Q2322.86 1545.82 2324.67 1542.27 Q2326.49 1538.71 2326.49 1531.6 Q2326.49 1524.47 2324.67 1520.93 Q2322.86 1517.37 2319.23 1517.37 M2319.23 1513.66 Q2325.04 1513.66 2328.09 1518.27 Q2331.17 1522.85 2331.17 1531.6 Q2331.17 1540.33 2328.09 1544.94 Q2325.04 1549.52 2319.23 1549.52 Q2313.42 1549.52 2310.34 1544.94 Q2307.28 1540.33 2307.28 1531.6 Q2307.28 1522.85 2310.34 1518.27 Q2313.42 1513.66 2319.23 1513.66 Z" fill="#000000" fill-rule="nonzero" fill-opacity="1"></path><polyline clip-path="url(#clip102)" style="stroke:#000000; stroke-linecap:round; stroke-linejoin:round; stroke-width:2; stroke-opacity:0.1; fill:none" points="110.881,1445.72 2352.76,1445.72 "></polyline>
<polyline clip-path="url(#clip102)" style="stroke:#000000; stroke-linecap:round; stroke-linejoin:round; stroke-width:2; stroke-opacity:0.1; fill:none" points="110.881,996.34 2352.76,996.34 "></polyline>
<polyline clip-path="url(#clip102)" style="stroke:#000000; stroke-linecap:round; stroke-linejoin:round; stroke-width:2; stroke-opacity:0.1; fill:none" points="110.881,546.964 2352.76,546.964 "></polyline>
<polyline clip-path="url(#clip102)" style="stroke:#000000; stroke-linecap:round; stroke-linejoin:round; stroke-width:2; stroke-opacity:0.1; fill:none" points="110.881,97.5878 2352.76,97.5878 "></polyline>
<polyline clip-path="url(#clip100)" style="stroke:#000000; stroke-linecap:round; stroke-linejoin:round; stroke-width:4; stroke-opacity:1; fill:none" points="110.881,1486.45 110.881,47.2441 "></polyline>
<polyline clip-path="url(#clip100)" style="stroke:#000000; stroke-linecap:round; stroke-linejoin:round; stroke-width:4; stroke-opacity:1; fill:none" points="110.881,1445.72 129.779,1445.72 "></polyline>
<polyline clip-path="url(#clip100)" style="stroke:#000000; stroke-linecap:round; stroke-linejoin:round; stroke-width:4; stroke-opacity:1; fill:none" points="110.881,996.34 129.779,996.34 "></polyline>
<polyline clip-path="url(#clip100)" style="stroke:#000000; stroke-linecap:round; stroke-linejoin:round; stroke-width:4; stroke-opacity:1; fill:none" points="110.881,546.964 129.779,546.964 "></polyline>
<polyline clip-path="url(#clip100)" style="stroke:#000000; stroke-linecap:round; stroke-linejoin:round; stroke-width:4; stroke-opacity:1; fill:none" points="110.881,97.5878 129.779,97.5878 "></polyline>
<path clip-path="url(#clip100)" d="M62.9365 1431.51 Q59.3254 1431.51 57.4967 1435.08 Q55.6912 1438.62 55.6912 1445.75 Q55.6912 1452.86 57.4967 1456.42 Q59.3254 1459.96 62.9365 1459.96 Q66.5707 1459.96 68.3763 1456.42 Q70.205 1452.86 70.205 1445.75 Q70.205 1438.62 68.3763 1435.08 Q66.5707 1431.51 62.9365 1431.51 M62.9365 1427.81 Q68.7467 1427.81 71.8022 1432.42 Q74.8809 1437 74.8809 1445.75 Q74.8809 1454.48 71.8022 1459.08 Q68.7467 1463.67 62.9365 1463.67 Q57.1264 1463.67 54.0477 1459.08 Q50.9921 1454.48 50.9921 1445.75 Q50.9921 1437 54.0477 1432.42 Q57.1264 1427.81 62.9365 1427.81 Z" fill="#000000" fill-rule="nonzero" fill-opacity="1"></path><path clip-path="url(#clip100)" d="M54.9736 1009.68 L62.6124 1009.68 L62.6124 983.319 L54.3023 984.986 L54.3023 980.726 L62.5661 979.06 L67.242 979.06 L67.242 1009.68 L74.8809 1009.68 L74.8809 1013.62 L54.9736 1013.62 L54.9736 1009.68 Z" fill="#000000" fill-rule="nonzero" fill-opacity="1"></path><path clip-path="url(#clip100)" d="M58.5615 560.309 L74.8809 560.309 L74.8809 564.244 L52.9366 564.244 L52.9366 560.309 Q55.5986 557.554 60.1819 552.924 Q64.7883 548.272 65.9689 546.929 Q68.2143 544.406 69.0939 542.67 Q69.9967 540.911 69.9967 539.221 Q69.9967 536.466 68.0522 534.73 Q66.1309 532.994 63.0291 532.994 Q60.83 532.994 58.3763 533.758 Q55.9458 534.522 53.168 536.073 L53.168 531.35 Q55.9921 530.216 58.4458 529.637 Q60.8995 529.059 62.9365 529.059 Q68.3068 529.059 71.5013 531.744 Q74.6957 534.429 74.6957 538.92 Q74.6957 541.049 73.8855 542.971 Q73.0985 544.869 70.992 547.461 Q70.4133 548.133 67.3115 551.35 Q64.2096 554.545 58.5615 560.309 Z" fill="#000000" fill-rule="nonzero" fill-opacity="1"></path><path clip-path="url(#clip100)" d="M67.7513 96.2336 Q71.1078 96.9512 72.9827 99.2197 Q74.8809 101.488 74.8809 104.822 Q74.8809 109.937 71.3624 112.738 Q67.8439 115.539 61.3624 115.539 Q59.1865 115.539 56.8717 115.099 Q54.5801 114.683 52.1264 113.826 L52.1264 109.312 Q54.0708 110.446 56.3856 111.025 Q58.7004 111.604 61.2236 111.604 Q65.6217 111.604 67.9133 109.868 Q70.2281 108.132 70.2281 104.822 Q70.2281 101.766 68.0754 100.053 Q65.9457 98.3169 62.1263 98.3169 L58.0986 98.3169 L58.0986 94.4743 L62.3115 94.4743 Q65.7606 94.4743 67.5893 93.1086 Q69.418 91.7197 69.418 89.1271 Q69.418 86.4651 67.5198 85.0531 Q65.6448 83.6179 62.1263 83.6179 Q60.205 83.6179 58.006 84.0346 Q55.8069 84.4512 53.168 85.3309 L53.168 81.1642 Q55.8301 80.4235 58.1449 80.0531 Q60.4828 79.6828 62.543 79.6828 Q67.867 79.6828 70.9689 82.1133 Q74.0707 84.5207 74.0707 88.641 Q74.0707 91.5114 72.4272 93.5021 Q70.7837 95.4697 67.7513 96.2336 Z" fill="#000000" fill-rule="nonzero" fill-opacity="1"></path><polyline clip-path="url(#clip102)" style="stroke:#009af9; stroke-linecap:round; stroke-linejoin:round; stroke-width:4; stroke-opacity:1; fill:none" points="174.33,1445.72 181.404,1399.16 188.477,1352.55 195.551,1305.8 202.624,1259.19 209.698,1212.94 216.771,1167.22 223.845,1120.81 230.918,1074.93 237.992,1029.77 245.065,985.509 252.139,942.257 259.212,897.843 266.286,854.465 273.359,812.303 280.433,771.531 287.506,732.132 294.58,691.133 301.653,651.639 308.727,613.819 315.8,577.828 322.874,543.397 329.947,507.096 337.021,472.726 344.094,440.433 351.168,410.353 358.241,381.809 365.315,351.338 372.388,323.163 379.462,297.407 386.535,274.177 393.609,252.248 400.682,228.555 407.756,207.452 414.829,189.034 421.903,173.377 428.976,158.6 436.05,142.421 443.123,129.046 450.197,118.536 457.27,110.934 464.344,103.654 471.417,95.4901 478.491,90.2557 485.564,87.9763 492.638,88.6594 499.711,89.026 506.785,89.1292 513.858,92.1937 520.932,98.2096 528.005,107.149 535.079,115.12 542.152,123.484 549.226,134.747 556.299,148.863 563.373,165.771 570.446,181.121 577.52,197.48 584.593,216.585 591.667,238.355 598.74,262.697 605.814,285.02 612.887,308.861 619.961,335.206 627.034,363.946 634.108,394.955 641.181,423.679 648.255,454.254 655.328,487.014 662.402,521.822 669.475,558.515 676.549,592.924 683.622,629.277 690.696,667.427 697.769,707.214 704.843,748.195 711.916,787.669 718.99,828.665 726.063,871.012 733.137,914.536 740.21,958.756 747.284,1002.06 754.357,1046.42 761.431,1091.65 768.504,1137.55 775.578,1183.85 782.651,1229.63 789.725,1275.95 796.798,1322.64 803.872,1369.48 810.945,1412.63 818.019,1417.72 825.092,1379.23 832.166,1333.25 839.239,1286.76 846.313,1240.23 853.386,1193.93 860.46,1148.09 867.533,1102.91 874.607,1057.93 881.68,1012.65 888.754,968.157 895.827,924.652 902.901,882.311 909.974,840.505 917.048,797.969 924.121,756.721 931.195,716.933 938.268,678.768 945.342,641.16 952.415,602.717 959.489,566.009 966.562,531.187 973.636,498.393 980.709,465.921 987.783,432.778 994.856,401.759 1001.93,372.993 1009,346.595 1016.08,320.077 1023.15,293.272 1030.22,268.913 1037.3,247.103 1044.37,227.927 1051.44,208.031 1058.52,188.403 1065.59,171.467 1072.66,157.295 1079.74,145.943 1086.81,133.173 1093.89,121.335 1100.96,112.353 1108.03,106.264 1115.11,103.09 1122.18,97.7713 1129.25,94.0958 1136.33,93.3483 1143.4,95.5331 1150.47,100.637 1157.55,102.908 1164.62,107.51 1171.69,115.021 1178.77,125.412 1185.84,138.549 1192.91,148.44 1199.99,161.177 1207.06,176.712 1214.13,194.983 1221.21,215.214 1228.28,233.007 1235.36,253.48 1242.43,276.554 1249.5,302.133 1256.58,328.928 1263.65,354.068 1270.72,381.637 1277.8,411.527 1284.87,443.612 1291.94,476.277 1299.02,507.978 1306.09,541.78 1313.16,577.553 1320.24,615.141 1327.31,652.826 1334.38,690.086 1341.46,729.096 1348.53,769.642 1355.6,811.469 1362.68,853.177 1369.75,894.996 1376.83,938.01 1383.9,981.738 1390.97,1026.71 1398.05,1071.59 1405.12,1116.62 1412.19,1161.64 1419.27,1207.7 1426.34,1254.57 1433.41,1301.08 1440.49,1347.34 1447.56,1385.61 1454.63,1396.99 1461.71,1387.84 1468.78,1352.38 1475.85,1307.71 1482.93,1262.43 1490,1216.78 1497.07,1170.51 1504.15,1124 1511.22,1078.45 1518.3,1034.39 1525.37,991.347 1532.44,947.194 1539.52,903.016 1546.59,859.534 1553.66,817.815 1560.74,778.306 1567.81,737.837 1574.88,698.109 1581.96,659.098 1589.03,621.183 1596.1,585.38 1603.18,549.077 1610.25,514.084 1617.32,481.387 1624.4,450.231 1631.47,420.398 1638.54,389.184 1645.62,358.592 1652.69,330.996 1659.77,306.708 1666.84,285.155 1673.91,260.747 1680.99,238.122 1688.06,217.166 1695.13,198.485 1702.21,182.997 1709.28,164.979 1716.35,150.204 1723.43,138.753 1730.5,129.877 1737.57,122.563 1744.65,112.073 1751.72,103.689 1758.79,98.1569 1765.87,96.231 1772.94,96.4381 1780.01,95.1758 1787.09,97.272 1794.16,101.97 1801.24,108.686 1808.31,116.299 1815.38,121.513 1822.46,129.394 1829.53,140.614 1836.6,155.538 1843.68,170.744 1850.75,186.107 1857.82,204.326 1864.9,224.678 1871.97,246.729 1879.04,268.644 1886.12,289.441 1893.19,312.643 1900.26,338.763 1907.34,368.038 1914.41,396.545 1921.48,426.308 1928.56,458.549 1935.63,492.56 1942.71,527.8 1949.78,561.851 1956.85,595.946 1963.93,631.503 1971,668.889 1978.07,708.394 1985.15,747.258 1992.22,787.385 1999.29,829.536 2006.37,873.127 2013.44,917.088 2020.51,960.187 2027.59,1003.8 2034.66,1047.71 2041.73,1091.95 2048.81,1136.74 2055.88,1182.04 2062.95,1227.29 2070.03,1273.61 2077.1,1319.55 2084.18,1355.73 2091.25,1370.75 2098.32,1373.3 2105.4,1361.65 2112.47,1328.55 2119.54,1286.16 2126.62,1241.46 2133.69,1196.51 2140.76,1151.6 2147.84,1106.77 2154.91,1062.01 2161.98,1017.35 2169.06,972.951 2176.13,929.099 2183.2,886.168 2190.28,842.886 2197.35,799.815 2204.42,758.207 2211.5,718.383 2218.57,680.427 2225.65,640.744 2232.72,603.208 2239.79,568.212 2246.87,536.195 2253.94,503.105 2261.01,472.623 2268.09,445.899 2275.16,422.626 2282.23,400.639 2289.31,378.654 "></polyline>
<path clip-path="url(#clip100)" d="M2001.41 198.898 L2278.03 198.898 L2278.03 95.2176 L2001.41 95.2176  Z" fill="#ffffff" fill-rule="evenodd" fill-opacity="1"></path>
<polyline clip-path="url(#clip100)" style="stroke:#000000; stroke-linecap:round; stroke-linejoin:round; stroke-width:4; stroke-opacity:1; fill:none" points="2001.41,198.898 2278.03,198.898 2278.03,95.2176 2001.41,95.2176 2001.41,198.898 "></polyline>
<polyline clip-path="url(#clip100)" style="stroke:#009af9; stroke-linecap:round; stroke-linejoin:round; stroke-width:4; stroke-opacity:1; fill:none" points="2026.32,147.058 2175.78,147.058 "></polyline>
<path clip-path="url(#clip100)" d="M2214.53 166.745 Q2212.72 171.375 2211.01 172.787 Q2209.3 174.199 2206.43 174.199 L2203.02 174.199 L2203.02 170.634 L2205.52 170.634 Q2207.28 170.634 2208.26 169.8 Q2209.23 168.967 2210.41 165.865 L2211.17 163.921 L2200.69 138.412 L2205.2 138.412 L2213.3 158.689 L2221.4 138.412 L2225.92 138.412 L2214.53 166.745 Z" fill="#000000" fill-rule="nonzero" fill-opacity="1"></path><path clip-path="url(#clip100)" d="M2233.21 160.402 L2240.85 160.402 L2240.85 134.037 L2232.54 135.703 L2232.54 131.444 L2240.8 129.778 L2245.48 129.778 L2245.48 160.402 L2253.12 160.402 L2253.12 164.338 L2233.21 164.338 L2233.21 160.402 Z" fill="#000000" fill-rule="nonzero" fill-opacity="1"></path></svg>